<svg width="161" height="27" viewBox="0 0 161 27" fill="none" xmlns="http://www.w3.org/2000/svg">
<path d="M15.552 23.04C15.68 23.552 15.744 24.192 15.744 24.96C15.744 25.696 15.68 26.336 15.552 26.88H11.712C11.584 26.336 11.52 25.696 11.52 24.96C11.52 24.192 11.584 23.552 11.712 23.04H10.272C10.144 22.496 10.08 21.856 10.08 21.12C10.08 20.352 10.144 19.712 10.272 19.2H8.832C8.704 18.656 8.64 18.016 8.64 17.28C8.64 16.512 8.704 15.872 8.832 15.36H4.032C4.16 15.872 4.224 16.512 4.224 17.28C4.224 18.016 4.16 18.656 4.032 19.2C4.16 19.712 4.224 20.352 4.224 21.12C4.224 21.856 4.16 22.496 4.032 23.04C4.16 23.552 4.224 24.192 4.224 24.96C4.224 25.696 4.16 26.336 4.032 26.88H0.192003C0.0640033 26.336 3.27826e-06 25.696 3.27826e-06 24.96C3.27826e-06 24.192 0.0640033 23.552 0.192003 23.04C0.0640033 22.496 3.27826e-06 21.856 3.27826e-06 21.12C3.27826e-06 20.352 0.0640033 19.712 0.192003 19.2C0.0640033 18.656 3.27826e-06 18.016 3.27826e-06 17.28C3.27826e-06 16.512 0.0640033 15.872 0.192003 15.36C0.0640033 14.816 3.27826e-06 14.176 3.27826e-06 13.44C3.27826e-06 12.672 0.0640033 12.032 0.192003 11.52C0.0640033 10.976 3.27826e-06 10.336 3.27826e-06 9.6C3.27826e-06 8.832 0.0640033 8.192 0.192003 7.68C0.0640033 7.136 3.27826e-06 6.496 3.27826e-06 5.76C3.27826e-06 4.992 0.0640033 4.352 0.192003 3.84C0.0640033 3.296 3.27826e-06 2.656 3.27826e-06 1.92C3.27826e-06 1.152 0.0640033 0.512004 0.192003 4.76837e-06H13.632C13.76 0.512004 13.824 1.152 13.824 1.92C13.824 2.656 13.76 3.296 13.632 3.84H15.552C15.68 4.352 15.744 4.992 15.744 5.76C15.744 6.496 15.68 7.136 15.552 7.68H14.592C14.72 8.192 14.784 8.832 14.784 9.6C14.784 10.336 14.72 10.976 14.592 11.52H11.712C11.84 12.032 11.904 12.672 11.904 13.44C11.904 14.176 11.84 14.816 11.712 15.36H12.672C12.8 15.872 12.864 16.512 12.864 17.28C12.864 18.016 12.8 18.656 12.672 19.2H14.112C14.24 19.712 14.304 20.352 14.304 21.12C14.304 21.856 14.24 22.496 14.112 23.04H15.552ZM10.752 11.52C10.624 10.976 10.56 10.336 10.56 9.6C10.56 8.832 10.624 8.192 10.752 7.68C10.624 7.136 10.56 6.496 10.56 5.76C10.56 4.992 10.624 4.352 10.752 3.84H4.032C4.16 4.352 4.224 4.992 4.224 5.76C4.224 6.496 4.16 7.136 4.032 7.68C4.16 8.192 4.224 8.832 4.224 9.6C4.224 10.336 4.16 10.976 4.032 11.52H10.752ZM34.0028 13.44C34.0028 14.176 33.9388 14.816 33.8108 15.36C33.9388 15.872 34.0028 16.512 34.0028 17.28C34.0028 18.016 33.9388 18.656 33.8108 19.2H23.7308C23.8588 19.712 23.9228 20.352 23.9228 21.12C23.9228 21.856 23.8588 22.496 23.7308 23.04H31.8908C32.0188 23.552 32.0828 24.192 32.0828 24.96C32.0828 25.696 32.0188 26.336 31.8908 26.88H22.2908C22.1628 26.336 22.0988 25.696 22.0988 24.96C22.0988 24.192 22.1628 23.552 22.2908 23.04H19.8908C19.7628 22.496 19.6988 21.856 19.6988 21.12C19.6988 20.352 19.7628 19.712 19.8908 19.2H18.4508C18.3228 18.656 18.2588 18.016 18.2588 17.28C18.2588 16.512 18.3228 15.872 18.4508 15.36H19.8908C19.7628 14.816 19.6988 14.176 19.6988 13.44C19.6988 12.672 19.7628 12.032 19.8908 11.52H22.2908C22.1628 10.976 22.0988 10.336 22.0988 9.6C22.0988 8.832 22.1628 8.192 22.2908 7.68H31.8908C32.0188 8.192 32.0828 8.832 32.0828 9.6C32.0828 10.336 32.0188 10.976 31.8908 11.52H33.8108C33.9388 12.032 34.0028 12.672 34.0028 13.44ZM29.9708 15.36C29.8428 14.816 29.7788 14.176 29.7788 13.44C29.7788 12.672 29.8428 12.032 29.9708 11.52H23.7308C23.8588 12.032 23.9228 12.672 23.9228 13.44C23.9228 14.176 23.8588 14.816 23.7308 15.36H29.9708ZM51.3015 21.12C51.3015 21.856 51.2375 22.496 51.1095 23.04H49.1895C49.3175 23.552 49.3815 24.192 49.3815 24.96C49.3815 25.696 49.3175 26.336 49.1895 26.88H38.6295C38.5015 26.336 38.4375 25.696 38.4375 24.96C38.4375 24.192 38.5015 23.552 38.6295 23.04H47.2695C47.1415 22.496 47.0775 21.856 47.0775 21.12C47.0775 20.352 47.1415 19.712 47.2695 19.2H39.5895C39.4615 18.656 39.3975 18.016 39.3975 17.28C39.3975 16.512 39.4615 15.872 39.5895 15.36H37.6695C37.5415 14.816 37.4775 14.176 37.4775 13.44C37.4775 12.672 37.5415 12.032 37.6695 11.52H39.5895C39.4615 10.976 39.3975 10.336 39.3975 9.6C39.3975 8.832 39.4615 8.192 39.5895 7.68H50.1495C50.2775 8.192 50.3415 8.832 50.3415 9.6C50.3415 10.336 50.2775 10.976 50.1495 11.52H41.5095C41.6375 12.032 41.7015 12.672 41.7015 13.44C41.7015 14.176 41.6375 14.816 41.5095 15.36H49.1895C49.3175 15.872 49.3815 16.512 49.3815 17.28C49.3815 18.016 49.3175 18.656 49.1895 19.2H51.1095C51.2375 19.712 51.3015 20.352 51.3015 21.12ZM70.5203 17.28C70.5203 18.016 70.4563 18.656 70.3283 19.2H68.8883C69.0163 19.712 69.0803 20.352 69.0803 21.12C69.0803 21.856 69.0163 22.496 68.8883 23.04H66.4883C66.6163 23.552 66.6803 24.192 66.6803 24.96C66.6803 25.696 66.6163 26.336 66.4883 26.88H58.8083C58.6803 26.336 58.6163 25.696 58.6163 24.96C58.6163 24.192 58.6803 23.552 58.8083 23.04H56.4083C56.2803 22.496 56.2163 21.856 56.2163 21.12C56.2163 20.352 56.2803 19.712 56.4083 19.2H54.9683C54.8403 18.656 54.7763 18.016 54.7763 17.28C54.7763 16.512 54.8403 15.872 54.9683 15.36H56.4083C56.2803 14.816 56.2163 14.176 56.2163 13.44C56.2163 12.672 56.2803 12.032 56.4083 11.52H58.8083C58.6803 10.976 58.6163 10.336 58.6163 9.6C58.6163 8.832 58.6803 8.192 58.8083 7.68H66.4883C66.6163 8.192 66.6803 8.832 66.6803 9.6C66.6803 10.336 66.6163 10.976 66.4883 11.52H68.8883C69.0163 12.032 69.0803 12.672 69.0803 13.44C69.0803 14.176 69.0163 14.816 68.8883 15.36H70.3283C70.4563 15.872 70.5203 16.512 70.5203 17.28ZM66.4883 19.2C66.3603 18.656 66.2963 18.016 66.2963 17.28C66.2963 16.512 66.3603 15.872 66.4883 15.36H65.0483C64.9203 14.816 64.8563 14.176 64.8563 13.44C64.8563 12.672 64.9203 12.032 65.0483 11.52H60.2483C60.3763 12.032 60.4403 12.672 60.4403 13.44C60.4403 14.176 60.3763 14.816 60.2483 15.36H58.8083C58.9363 15.872 59.0003 16.512 59.0003 17.28C59.0003 18.016 58.9363 18.656 58.8083 19.2H60.2483C60.3763 19.712 60.4403 20.352 60.4403 21.12C60.4403 21.856 60.3763 22.496 60.2483 23.04H65.0483C64.9203 22.496 64.8563 21.856 64.8563 21.12C64.8563 20.352 64.9203 19.712 65.0483 19.2H66.4883ZM78.699 21.12C78.699 21.856 78.635 22.496 78.507 23.04H83.307C83.435 23.552 83.499 24.192 83.499 24.96C83.499 25.696 83.435 26.336 83.307 26.88H75.627C75.499 26.336 75.435 25.696 75.435 24.96C75.435 24.192 75.499 23.552 75.627 23.04H73.227C73.099 22.496 73.035 21.856 73.035 21.12C73.035 20.352 73.099 19.712 73.227 19.2C73.099 18.656 73.035 18.016 73.035 17.28C73.035 16.512 73.099 15.872 73.227 15.36C73.099 14.816 73.035 14.176 73.035 13.44C73.035 12.672 73.099 12.032 73.227 11.52C73.099 10.976 73.035 10.336 73.035 9.6C73.035 8.832 73.099 8.192 73.227 7.68H77.067C77.195 8.192 77.259 8.832 77.259 9.6C77.259 10.336 77.195 10.976 77.067 11.52C77.195 12.032 77.259 12.672 77.259 13.44C77.259 14.176 77.195 14.816 77.067 15.36C77.195 15.872 77.259 16.512 77.259 17.28C77.259 18.016 77.195 18.656 77.067 19.2H78.507C78.635 19.712 78.699 20.352 78.699 21.12ZM88.587 11.52C88.715 12.032 88.779 12.672 88.779 13.44C88.779 14.176 88.715 14.816 88.587 15.36C88.715 15.872 88.779 16.512 88.779 17.28C88.779 18.016 88.715 18.656 88.587 19.2C88.715 19.712 88.779 20.352 88.779 21.12C88.779 21.856 88.715 22.496 88.587 23.04C88.715 23.552 88.779 24.192 88.779 24.96C88.779 25.696 88.715 26.336 88.587 26.88H84.747C84.619 26.336 84.555 25.696 84.555 24.96C84.555 24.192 84.619 23.552 84.747 23.04H83.307C83.179 22.496 83.115 21.856 83.115 21.12C83.115 20.352 83.179 19.712 83.307 19.2H84.747C84.619 18.656 84.555 18.016 84.555 17.28C84.555 16.512 84.619 15.872 84.747 15.36C84.619 14.816 84.555 14.176 84.555 13.44C84.555 12.672 84.619 12.032 84.747 11.52C84.619 10.976 84.555 10.336 84.555 9.6C84.555 8.832 84.619 8.192 84.747 7.68H88.587C88.715 8.192 88.779 8.832 88.779 9.6C88.779 10.336 88.715 10.976 88.587 11.52ZM106.846 11.52C106.974 12.032 107.038 12.672 107.038 13.44C107.038 14.176 106.974 14.816 106.846 15.36H103.006C102.878 14.816 102.814 14.176 102.814 13.44C102.814 12.672 102.878 12.032 103.006 11.52H99.6458C99.7738 12.032 99.8378 12.672 99.8378 13.44C99.8378 14.176 99.7738 14.816 99.6458 15.36H98.2058C98.3338 15.872 98.3978 16.512 98.3978 17.28C98.3978 18.016 98.3338 18.656 98.2058 19.2C98.3338 19.712 98.3978 20.352 98.3978 21.12C98.3978 21.856 98.3338 22.496 98.2058 23.04H101.086C101.214 23.552 101.278 24.192 101.278 24.96C101.278 25.696 101.214 26.336 101.086 26.88H91.4858C91.3578 26.336 91.2938 25.696 91.2938 24.96C91.2938 24.192 91.3578 23.552 91.4858 23.04H94.3658C94.2378 22.496 94.1738 21.856 94.1738 21.12C94.1738 20.352 94.2378 19.712 94.3658 19.2C94.2378 18.656 94.1738 18.016 94.1738 17.28C94.1738 16.512 94.2378 15.872 94.3658 15.36C94.2378 14.816 94.1738 14.176 94.1738 13.44C94.1738 12.672 94.2378 12.032 94.3658 11.52H91.4858C91.3578 10.976 91.2938 10.336 91.2938 9.6C91.2938 8.832 91.3578 8.192 91.4858 7.68H96.2858C96.4138 8.192 96.4778 8.832 96.4778 9.6C96.4778 10.336 96.4138 10.976 96.2858 11.52H98.2058C98.0778 10.976 98.0138 10.336 98.0138 9.6C98.0138 8.832 98.0778 8.192 98.2058 7.68H105.406C105.534 8.192 105.598 8.832 105.598 9.6C105.598 10.336 105.534 10.976 105.406 11.52H106.846ZM125.105 19.2C125.233 19.712 125.297 20.352 125.297 21.12C125.297 21.856 125.233 22.496 125.105 23.04H123.185C123.313 23.552 123.377 24.192 123.377 24.96C123.377 25.696 123.313 26.336 123.185 26.88H113.585C113.457 26.336 113.393 25.696 113.393 24.96C113.393 24.192 113.457 23.552 113.585 23.04H111.665C111.537 22.496 111.473 21.856 111.473 21.12C111.473 20.352 111.537 19.712 111.665 19.2H109.745C109.617 18.656 109.553 18.016 109.553 17.28C109.553 16.512 109.617 15.872 109.745 15.36H111.665C111.537 14.816 111.473 14.176 111.473 13.44C111.473 12.672 111.537 12.032 111.665 11.52H113.585C113.457 10.976 113.393 10.336 113.393 9.6C113.393 8.832 113.457 8.192 113.585 7.68H123.185C123.313 8.192 123.377 8.832 123.377 9.6C123.377 10.336 123.313 10.976 123.185 11.52H125.105C125.233 12.032 125.297 12.672 125.297 13.44C125.297 14.176 125.233 14.816 125.105 15.36H121.265C121.137 14.816 121.073 14.176 121.073 13.44C121.073 12.672 121.137 12.032 121.265 11.52H115.505C115.633 12.032 115.697 12.672 115.697 13.44C115.697 14.176 115.633 14.816 115.505 15.36H113.585C113.713 15.872 113.777 16.512 113.777 17.28C113.777 18.016 113.713 18.656 113.585 19.2H115.505C115.633 19.712 115.697 20.352 115.697 21.12C115.697 21.856 115.633 22.496 115.505 23.04H121.265C121.137 22.496 121.073 21.856 121.073 21.12C121.073 20.352 121.137 19.712 121.265 19.2H125.105ZM143.555 13.44C143.555 14.176 143.491 14.816 143.363 15.36C143.491 15.872 143.555 16.512 143.555 17.28C143.555 18.016 143.491 18.656 143.363 19.2H133.283C133.411 19.712 133.475 20.352 133.475 21.12C133.475 21.856 133.411 22.496 133.283 23.04H141.443C141.571 23.552 141.635 24.192 141.635 24.96C141.635 25.696 141.571 26.336 141.443 26.88H131.843C131.715 26.336 131.651 25.696 131.651 24.96C131.651 24.192 131.715 23.552 131.843 23.04H129.443C129.315 22.496 129.251 21.856 129.251 21.12C129.251 20.352 129.315 19.712 129.443 19.2H128.003C127.875 18.656 127.811 18.016 127.811 17.28C127.811 16.512 127.875 15.872 128.003 15.36H129.443C129.315 14.816 129.251 14.176 129.251 13.44C129.251 12.672 129.315 12.032 129.443 11.52H131.843C131.715 10.976 131.651 10.336 131.651 9.6C131.651 8.832 131.715 8.192 131.843 7.68H141.443C141.571 8.192 141.635 8.832 141.635 9.6C141.635 10.336 141.571 10.976 141.443 11.52H143.363C143.491 12.032 143.555 12.672 143.555 13.44ZM139.523 15.36C139.395 14.816 139.331 14.176 139.331 13.44C139.331 12.672 139.395 12.032 139.523 11.52H133.283C133.411 12.032 133.475 12.672 133.475 13.44C133.475 14.176 133.411 14.816 133.283 15.36H139.523ZM160.854 21.12C160.854 21.856 160.79 22.496 160.662 23.04H158.742C158.87 23.552 158.934 24.192 158.934 24.96C158.934 25.696 158.87 26.336 158.742 26.88H148.182C148.054 26.336 147.99 25.696 147.99 24.96C147.99 24.192 148.054 23.552 148.182 23.04H156.822C156.694 22.496 156.63 21.856 156.63 21.12C156.63 20.352 156.694 19.712 156.822 19.2H149.142C149.014 18.656 148.95 18.016 148.95 17.28C148.95 16.512 149.014 15.872 149.142 15.36H147.222C147.094 14.816 147.03 14.176 147.03 13.44C147.03 12.672 147.094 12.032 147.222 11.52H149.142C149.014 10.976 148.95 10.336 148.95 9.6C148.95 8.832 149.014 8.192 149.142 7.68H159.702C159.83 8.192 159.894 8.832 159.894 9.6C159.894 10.336 159.83 10.976 159.702 11.52H151.062C151.19 12.032 151.254 12.672 151.254 13.44C151.254 14.176 151.19 14.816 151.062 15.36H158.742C158.87 15.872 158.934 16.512 158.934 17.28C158.934 18.016 158.87 18.656 158.742 19.2H160.662C160.79 19.712 160.854 20.352 160.854 21.12Z" fill="white"/>
</svg>
