<svg width="70" height="2287" viewBox="0 0 70 2287" fill="none" xmlns="http://www.w3.org/2000/svg">
<path d="M20 13.6L45.56 13.6V0.8L48.8 0.8L48.8 29.6H45.56L45.56 16.84L20 16.84L20 13.6ZM20 32.4316H38.36C39.24 32.4316 40.04 32.6449 40.76 33.0716C41.5067 33.5249 42.0933 34.1116 42.52 34.8316C42.9733 35.5782 43.2 36.3916 43.2 37.2716V50.3116H39.92V37.2716C39.92 36.8449 39.76 36.4716 39.44 36.1516C39.1467 35.8582 38.7867 35.7116 38.36 35.7116H20V32.4316ZM20 52.9003H43.2V56.1803H20V52.9003ZM47.52 52.9003H50.8V56.1803H47.52V52.9003ZM20 66.1006C20 65.194 20.2133 64.3673 20.64 63.6206C21.0933 62.9006 21.68 62.3273 22.4 61.9006C23.1467 61.474 23.96 61.2606 24.84 61.2606L50.8 61.2606V64.5406H43.2V74.5806H39.92V64.5406L24.84 64.5406C24.4133 64.5406 24.04 64.6873 23.72 64.9806C23.4267 65.3006 23.28 65.674 23.28 66.1006L23.28 74.5806H20L20 66.1006ZM20 82.4269C20 81.5469 20.2133 80.7335 20.64 79.9869C21.0933 79.2669 21.68 78.6802 22.4 78.2269C23.1467 77.8002 23.96 77.5869 24.84 77.5869L38.36 77.5869C39.24 77.5869 40.04 77.8002 40.76 78.2269C41.5067 78.6802 42.0933 79.2669 42.52 79.9869C42.9733 80.7335 43.2 81.5469 43.2 82.4269L43.2 96.3469C43.2 97.2535 42.9733 98.0669 42.52 98.7869C42.0933 99.5335 41.5067 100.12 40.76 100.547C40.04 101 39.24 101.227 38.36 101.227L24.84 101.227C23.96 101.227 23.1467 101 22.4 100.547C21.68 100.12 21.0933 99.5335 20.64 98.7869C20.2133 98.0669 20 97.2535 20 96.3469V82.4269ZM23.28 82.4269V96.3469C23.28 96.7735 23.4267 97.1335 23.72 97.4269C24.04 97.7469 24.4133 97.9069 24.84 97.9069L38.36 97.9069C38.7867 97.9069 39.1467 97.7469 39.44 97.4269C39.76 97.1335 39.92 96.7735 39.92 96.3469L39.92 82.4269C39.92 82.0002 39.76 81.6269 39.44 81.3069C39.1467 81.0135 38.7867 80.8669 38.36 80.8669L24.84 80.8669C24.4133 80.8669 24.04 81.0135 23.72 81.3069C23.4267 81.6269 23.28 82.0002 23.28 82.4269ZM20 104.816L43.2 104.816V123.616C43.2 124.496 42.9733 125.296 42.52 126.016C42.0933 126.763 41.5067 127.35 40.76 127.776C40.04 128.23 39.24 128.456 38.36 128.456H20V125.176L38.36 125.176C38.7867 125.176 39.1467 125.016 39.44 124.696C39.76 124.403 39.92 124.043 39.92 123.616V109.696C39.92 109.27 39.76 108.896 39.44 108.576C39.1467 108.256 38.7867 108.096 38.36 108.096L20 108.096V104.816ZM20 132.868H48.8L48.8 155.628C48.8 156.508 48.5867 157.308 48.16 158.028C47.7333 158.774 47.1467 159.361 46.4 159.788C45.68 160.214 44.88 160.428 44 160.428H37.88C37.5067 160.428 37.1333 160.374 36.76 160.268C36.4133 160.188 36.08 160.068 35.76 159.908C34.88 160.494 34.12 160.934 33.48 161.228C32.84 161.521 32.1867 161.668 31.52 161.668H24.8C23.92 161.668 23.1067 161.454 22.36 161.028C21.64 160.601 21.0667 160.014 20.64 159.268C20.2133 158.548 20 157.748 20 156.868V132.868ZM23.24 137.668V156.868C23.24 157.294 23.3867 157.654 23.68 157.948C24 158.268 24.3733 158.428 24.8 158.428H31.52C31.9467 158.428 32.3067 158.268 32.6 157.948C32.92 157.654 33.08 157.294 33.08 156.868L33.08 137.668C33.08 137.241 32.92 136.868 32.6 136.548C32.3067 136.254 31.9467 136.108 31.52 136.108H24.8C24.3733 136.108 24 136.254 23.68 136.548C23.3867 136.868 23.24 137.241 23.24 137.668ZM36.32 137.668L36.32 155.628C36.32 156.054 36.4667 156.414 36.76 156.708C37.08 157.001 37.4533 157.148 37.88 157.148H44C44.4267 157.148 44.7867 157.001 45.08 156.708C45.4 156.414 45.56 156.054 45.56 155.628V137.668C45.56 137.241 45.4 136.868 45.08 136.548C44.7867 136.254 44.4267 136.108 44 136.108H37.88C37.4533 136.108 37.08 136.254 36.76 136.548C36.4667 136.868 36.32 137.241 36.32 137.668ZM20 170.669C20 169.789 20.2133 168.976 20.64 168.229C21.0933 167.509 21.68 166.922 22.4 166.469C23.1467 166.042 23.96 165.829 24.84 165.829H38.36C39.24 165.829 40.04 166.042 40.76 166.469C41.5067 166.922 42.0933 167.509 42.52 168.229C42.9733 168.976 43.2 169.789 43.2 170.669V184.589C43.2 185.496 42.9733 186.309 42.52 187.029C42.0933 187.776 41.5067 188.362 40.76 188.789C40.04 189.242 39.24 189.469 38.36 189.469H24.84C23.96 189.469 23.1467 189.242 22.4 188.789C21.68 188.362 21.0933 187.776 20.64 187.029C20.2133 186.309 20 185.496 20 184.589V170.669ZM23.28 170.669V184.589C23.28 185.016 23.4267 185.376 23.72 185.669C24.04 185.989 24.4133 186.149 24.84 186.149H38.36C38.7867 186.149 39.1467 185.989 39.44 185.669C39.76 185.376 39.92 185.016 39.92 184.589V170.669C39.92 170.242 39.76 169.869 39.44 169.549C39.1467 169.256 38.7867 169.109 38.36 169.109H24.84C24.4133 169.109 24.04 169.256 23.72 169.549C23.4267 169.869 23.28 170.242 23.28 170.669ZM20 197.507C20 196.6 20.2133 195.774 20.64 195.027C21.0933 194.307 21.68 193.734 22.4 193.307C23.1467 192.88 23.96 192.667 24.84 192.667H50.8V195.947H43.2V205.987H39.92V195.947H24.84C24.4133 195.947 24.04 196.094 23.72 196.387C23.4267 196.707 23.28 197.08 23.28 197.507V205.987H20V197.507Z" fill="white" fill-opacity="0.3"/>
<circle cx="35" cy="233.5" r="16" transform="rotate(90 35 233.5)" stroke="white" stroke-opacity="0.3"/>
<circle cx="35" cy="233.5" r="2.5" transform="rotate(90 35 233.5)" fill="white" fill-opacity="0.3"/>
<circle cx="35" cy="233.5" r="2" transform="rotate(90 35 233.5)" stroke="white" stroke-opacity="0.3"/>
<path d="M20 273.6H45.56V260.8H48.8L48.8 289.6H45.56L45.56 276.84H20L20 273.6ZM20 292.432H38.36C39.24 292.432 40.04 292.645 40.76 293.072C41.5067 293.525 42.0933 294.112 42.52 294.832C42.9733 295.578 43.2 296.392 43.2 297.272V310.312H39.92V297.272C39.92 296.845 39.76 296.472 39.44 296.152C39.1467 295.858 38.7867 295.712 38.36 295.712H20V292.432ZM20 312.9H43.2V316.18H20V312.9ZM47.52 312.9H50.8V316.18H47.52V312.9ZM20 326.101C20 325.194 20.2133 324.367 20.64 323.621C21.0933 322.901 21.68 322.327 22.4 321.901C23.1467 321.474 23.96 321.261 24.84 321.261H50.8V324.541H43.2V334.581H39.92V324.541H24.84C24.4133 324.541 24.04 324.687 23.72 324.981C23.4267 325.301 23.28 325.674 23.28 326.101L23.28 334.581H20L20 326.101ZM20 342.427C20 341.547 20.2133 340.734 20.64 339.987C21.0933 339.267 21.68 338.68 22.4 338.227C23.1467 337.8 23.96 337.587 24.84 337.587H38.36C39.24 337.587 40.04 337.8 40.76 338.227C41.5067 338.68 42.0933 339.267 42.52 339.987C42.9733 340.734 43.2 341.547 43.2 342.427L43.2 356.347C43.2 357.254 42.9733 358.067 42.52 358.787C42.0933 359.534 41.5067 360.12 40.76 360.547C40.04 361 39.24 361.227 38.36 361.227H24.84C23.96 361.227 23.1467 361 22.4 360.547C21.68 360.12 21.0933 359.534 20.64 358.787C20.2133 358.067 20 357.254 20 356.347V342.427ZM23.28 342.427V356.347C23.28 356.774 23.4267 357.134 23.72 357.427C24.04 357.747 24.4133 357.907 24.84 357.907H38.36C38.7867 357.907 39.1467 357.747 39.44 357.427C39.76 357.134 39.92 356.774 39.92 356.347L39.92 342.427C39.92 342 39.76 341.627 39.44 341.307C39.1467 341.014 38.7867 340.867 38.36 340.867H24.84C24.4133 340.867 24.04 341.014 23.72 341.307C23.4267 341.627 23.28 342 23.28 342.427ZM20 364.816H43.2V383.616C43.2 384.496 42.9733 385.296 42.52 386.016C42.0933 386.763 41.5067 387.35 40.76 387.776C40.04 388.23 39.24 388.456 38.36 388.456H20V385.176H38.36C38.7867 385.176 39.1467 385.016 39.44 384.696C39.76 384.403 39.92 384.043 39.92 383.616V369.696C39.92 369.27 39.76 368.896 39.44 368.576C39.1467 368.256 38.7867 368.096 38.36 368.096H20V364.816ZM20 392.868H48.8L48.8 415.628C48.8 416.508 48.5867 417.308 48.16 418.028C47.7333 418.774 47.1467 419.361 46.4 419.788C45.68 420.214 44.88 420.428 44 420.428H37.88C37.5067 420.428 37.1333 420.374 36.76 420.268C36.4133 420.188 36.08 420.068 35.76 419.908C34.88 420.494 34.12 420.934 33.48 421.228C32.84 421.521 32.1867 421.668 31.52 421.668H24.8C23.92 421.668 23.1067 421.454 22.36 421.028C21.64 420.601 21.0667 420.014 20.64 419.268C20.2133 418.548 20 417.748 20 416.868V392.868ZM23.24 397.668V416.868C23.24 417.294 23.3867 417.654 23.68 417.948C24 418.268 24.3733 418.428 24.8 418.428H31.52C31.9467 418.428 32.3067 418.268 32.6 417.948C32.92 417.654 33.08 417.294 33.08 416.868L33.08 397.668C33.08 397.241 32.92 396.868 32.6 396.548C32.3067 396.254 31.9467 396.108 31.52 396.108H24.8C24.3733 396.108 24 396.254 23.68 396.548C23.3867 396.868 23.24 397.241 23.24 397.668ZM36.32 397.668L36.32 415.628C36.32 416.054 36.4667 416.414 36.76 416.708C37.08 417.001 37.4533 417.148 37.88 417.148H44C44.4267 417.148 44.7867 417.001 45.08 416.708C45.4 416.414 45.56 416.054 45.56 415.628V397.668C45.56 397.241 45.4 396.868 45.08 396.548C44.7867 396.254 44.4267 396.108 44 396.108H37.88C37.4533 396.108 37.08 396.254 36.76 396.548C36.4667 396.868 36.32 397.241 36.32 397.668ZM20 430.669C20 429.789 20.2133 428.976 20.64 428.229C21.0933 427.509 21.68 426.922 22.4 426.469C23.1467 426.042 23.96 425.829 24.84 425.829H38.36C39.24 425.829 40.04 426.042 40.76 426.469C41.5067 426.922 42.0933 427.509 42.52 428.229C42.9733 428.976 43.2 429.789 43.2 430.669V444.589C43.2 445.496 42.9733 446.309 42.52 447.029C42.0933 447.776 41.5067 448.362 40.76 448.789C40.04 449.242 39.24 449.469 38.36 449.469H24.84C23.96 449.469 23.1467 449.242 22.4 448.789C21.68 448.362 21.0933 447.776 20.64 447.029C20.2133 446.309 20 445.496 20 444.589V430.669ZM23.28 430.669V444.589C23.28 445.016 23.4267 445.376 23.72 445.669C24.04 445.989 24.4133 446.149 24.84 446.149H38.36C38.7867 446.149 39.1467 445.989 39.44 445.669C39.76 445.376 39.92 445.016 39.92 444.589V430.669C39.92 430.242 39.76 429.869 39.44 429.549C39.1467 429.256 38.7867 429.109 38.36 429.109H24.84C24.4133 429.109 24.04 429.256 23.72 429.549C23.4267 429.869 23.28 430.242 23.28 430.669ZM20 457.507C20 456.6 20.2133 455.774 20.64 455.027C21.0933 454.307 21.68 453.734 22.4 453.307C23.1467 452.88 23.96 452.667 24.84 452.667H50.8V455.947H43.2V465.987H39.92V455.947H24.84C24.4133 455.947 24.04 456.094 23.72 456.387C23.4267 456.707 23.28 457.08 23.28 457.507V465.987H20V457.507Z" fill="white" fill-opacity="0.3"/>
<circle cx="35" cy="493.5" r="16" transform="rotate(90 35 493.5)" stroke="white" stroke-opacity="0.3"/>
<circle cx="35" cy="493.5" r="2.5" transform="rotate(90 35 493.5)" fill="white" fill-opacity="0.3"/>
<circle cx="35" cy="493.5" r="2" transform="rotate(90 35 493.5)" stroke="white" stroke-opacity="0.3"/>
<path d="M20 533.6H45.56V520.8H48.8L48.8 549.6H45.56L45.56 536.84H20L20 533.6ZM20 552.432H38.36C39.24 552.432 40.04 552.645 40.76 553.072C41.5067 553.525 42.0933 554.112 42.52 554.832C42.9733 555.578 43.2 556.392 43.2 557.272V570.312H39.92V557.272C39.92 556.845 39.76 556.472 39.44 556.152C39.1467 555.858 38.7867 555.712 38.36 555.712H20V552.432ZM20 572.9H43.2V576.18H20V572.9ZM47.52 572.9H50.8V576.18H47.52V572.9ZM20 586.101C20 585.194 20.2133 584.367 20.64 583.621C21.0933 582.901 21.68 582.327 22.4 581.901C23.1467 581.474 23.96 581.261 24.84 581.261H50.8V584.541H43.2V594.581H39.92V584.541H24.84C24.4133 584.541 24.04 584.687 23.72 584.981C23.4267 585.301 23.28 585.674 23.28 586.101L23.28 594.581H20L20 586.101ZM20 602.427C20 601.547 20.2133 600.734 20.64 599.987C21.0933 599.267 21.68 598.68 22.4 598.227C23.1467 597.8 23.96 597.587 24.84 597.587H38.36C39.24 597.587 40.04 597.8 40.76 598.227C41.5067 598.68 42.0933 599.267 42.52 599.987C42.9733 600.734 43.2 601.547 43.2 602.427L43.2 616.347C43.2 617.254 42.9733 618.067 42.52 618.787C42.0933 619.534 41.5067 620.12 40.76 620.547C40.04 621 39.24 621.227 38.36 621.227H24.84C23.96 621.227 23.1467 621 22.4 620.547C21.68 620.12 21.0933 619.534 20.64 618.787C20.2133 618.067 20 617.254 20 616.347V602.427ZM23.28 602.427V616.347C23.28 616.774 23.4267 617.134 23.72 617.427C24.04 617.747 24.4133 617.907 24.84 617.907H38.36C38.7867 617.907 39.1467 617.747 39.44 617.427C39.76 617.134 39.92 616.774 39.92 616.347L39.92 602.427C39.92 602 39.76 601.627 39.44 601.307C39.1467 601.014 38.7867 600.867 38.36 600.867H24.84C24.4133 600.867 24.04 601.014 23.72 601.307C23.4267 601.627 23.28 602 23.28 602.427ZM20 624.816H43.2V643.616C43.2 644.496 42.9733 645.296 42.52 646.016C42.0933 646.763 41.5067 647.35 40.76 647.776C40.04 648.23 39.24 648.456 38.36 648.456H20V645.176H38.36C38.7867 645.176 39.1467 645.016 39.44 644.696C39.76 644.403 39.92 644.043 39.92 643.616V629.696C39.92 629.27 39.76 628.896 39.44 628.576C39.1467 628.256 38.7867 628.096 38.36 628.096H20V624.816ZM20 652.868H48.8L48.8 675.628C48.8 676.508 48.5867 677.308 48.16 678.028C47.7333 678.774 47.1467 679.361 46.4 679.788C45.68 680.214 44.88 680.428 44 680.428H37.88C37.5067 680.428 37.1333 680.374 36.76 680.268C36.4133 680.188 36.08 680.068 35.76 679.908C34.88 680.494 34.12 680.934 33.48 681.228C32.84 681.521 32.1867 681.668 31.52 681.668H24.8C23.92 681.668 23.1067 681.454 22.36 681.028C21.64 680.601 21.0667 680.014 20.64 679.268C20.2133 678.548 20 677.748 20 676.868V652.868ZM23.24 657.668V676.868C23.24 677.294 23.3867 677.654 23.68 677.948C24 678.268 24.3733 678.428 24.8 678.428H31.52C31.9467 678.428 32.3067 678.268 32.6 677.948C32.92 677.654 33.08 677.294 33.08 676.868L33.08 657.668C33.08 657.241 32.92 656.868 32.6 656.548C32.3067 656.254 31.9467 656.108 31.52 656.108H24.8C24.3733 656.108 24 656.254 23.68 656.548C23.3867 656.868 23.24 657.241 23.24 657.668ZM36.32 657.668L36.32 675.628C36.32 676.054 36.4667 676.414 36.76 676.708C37.08 677.001 37.4533 677.148 37.88 677.148H44C44.4267 677.148 44.7867 677.001 45.08 676.708C45.4 676.414 45.56 676.054 45.56 675.628V657.668C45.56 657.241 45.4 656.868 45.08 656.548C44.7867 656.254 44.4267 656.108 44 656.108H37.88C37.4533 656.108 37.08 656.254 36.76 656.548C36.4667 656.868 36.32 657.241 36.32 657.668ZM20 690.669C20 689.789 20.2133 688.976 20.64 688.229C21.0933 687.509 21.68 686.922 22.4 686.469C23.1467 686.042 23.96 685.829 24.84 685.829H38.36C39.24 685.829 40.04 686.042 40.76 686.469C41.5067 686.922 42.0933 687.509 42.52 688.229C42.9733 688.976 43.2 689.789 43.2 690.669V704.589C43.2 705.496 42.9733 706.309 42.52 707.029C42.0933 707.776 41.5067 708.362 40.76 708.789C40.04 709.242 39.24 709.469 38.36 709.469H24.84C23.96 709.469 23.1467 709.242 22.4 708.789C21.68 708.362 21.0933 707.776 20.64 707.029C20.2133 706.309 20 705.496 20 704.589V690.669ZM23.28 690.669V704.589C23.28 705.016 23.4267 705.376 23.72 705.669C24.04 705.989 24.4133 706.149 24.84 706.149H38.36C38.7867 706.149 39.1467 705.989 39.44 705.669C39.76 705.376 39.92 705.016 39.92 704.589V690.669C39.92 690.242 39.76 689.869 39.44 689.549C39.1467 689.256 38.7867 689.109 38.36 689.109H24.84C24.4133 689.109 24.04 689.256 23.72 689.549C23.4267 689.869 23.28 690.242 23.28 690.669ZM20 717.507C20 716.6 20.2133 715.774 20.64 715.027C21.0933 714.307 21.68 713.734 22.4 713.307C23.1467 712.88 23.96 712.667 24.84 712.667H50.8V715.947H43.2V725.987H39.92V715.947H24.84C24.4133 715.947 24.04 716.094 23.72 716.387C23.4267 716.707 23.28 717.08 23.28 717.507V725.987H20V717.507Z" fill="white" fill-opacity="0.3"/>
<circle cx="35" cy="753.5" r="16" transform="rotate(90 35 753.5)" stroke="white" stroke-opacity="0.3"/>
<circle cx="35" cy="753.5" r="2.5" transform="rotate(90 35 753.5)" fill="white" fill-opacity="0.3"/>
<circle cx="35" cy="753.5" r="2" transform="rotate(90 35 753.5)" stroke="white" stroke-opacity="0.3"/>
<path d="M20 793.6H45.56V780.8H48.8L48.8 809.6H45.56L45.56 796.84H20L20 793.6ZM20 812.432H38.36C39.24 812.432 40.04 812.645 40.76 813.072C41.5067 813.525 42.0933 814.112 42.52 814.832C42.9733 815.578 43.2 816.392 43.2 817.272V830.312H39.92V817.272C39.92 816.845 39.76 816.472 39.44 816.152C39.1467 815.858 38.7867 815.712 38.36 815.712H20V812.432ZM20 832.9H43.2V836.18H20V832.9ZM47.52 832.9H50.8V836.18H47.52V832.9ZM20 846.101C20 845.194 20.2133 844.367 20.64 843.621C21.0933 842.901 21.68 842.327 22.4 841.901C23.1467 841.474 23.96 841.261 24.84 841.261H50.8V844.541H43.2V854.581H39.92V844.541H24.84C24.4133 844.541 24.04 844.687 23.72 844.981C23.4267 845.301 23.28 845.674 23.28 846.101L23.28 854.581H20L20 846.101ZM20 862.427C20 861.547 20.2133 860.734 20.64 859.987C21.0933 859.267 21.68 858.68 22.4 858.227C23.1467 857.8 23.96 857.587 24.84 857.587H38.36C39.24 857.587 40.04 857.8 40.76 858.227C41.5067 858.68 42.0933 859.267 42.52 859.987C42.9733 860.734 43.2 861.547 43.2 862.427L43.2 876.347C43.2 877.254 42.9733 878.067 42.52 878.787C42.0933 879.534 41.5067 880.12 40.76 880.547C40.04 881 39.24 881.227 38.36 881.227H24.84C23.96 881.227 23.1467 881 22.4 880.547C21.68 880.12 21.0933 879.534 20.64 878.787C20.2133 878.067 20 877.254 20 876.347V862.427ZM23.28 862.427V876.347C23.28 876.774 23.4267 877.134 23.72 877.427C24.04 877.747 24.4133 877.907 24.84 877.907H38.36C38.7867 877.907 39.1467 877.747 39.44 877.427C39.76 877.134 39.92 876.774 39.92 876.347L39.92 862.427C39.92 862 39.76 861.627 39.44 861.307C39.1467 861.014 38.7867 860.867 38.36 860.867H24.84C24.4133 860.867 24.04 861.014 23.72 861.307C23.4267 861.627 23.28 862 23.28 862.427ZM20 884.816H43.2V903.616C43.2 904.496 42.9733 905.296 42.52 906.016C42.0933 906.763 41.5067 907.35 40.76 907.776C40.04 908.23 39.24 908.456 38.36 908.456H20V905.176H38.36C38.7867 905.176 39.1467 905.016 39.44 904.696C39.76 904.403 39.92 904.043 39.92 903.616V889.696C39.92 889.27 39.76 888.896 39.44 888.576C39.1467 888.256 38.7867 888.096 38.36 888.096H20V884.816ZM20 912.868H48.8L48.8 935.628C48.8 936.508 48.5867 937.308 48.16 938.028C47.7333 938.774 47.1467 939.361 46.4 939.788C45.68 940.214 44.88 940.428 44 940.428H37.88C37.5067 940.428 37.1333 940.374 36.76 940.268C36.4133 940.188 36.08 940.068 35.76 939.908C34.88 940.494 34.12 940.934 33.48 941.228C32.84 941.521 32.1867 941.668 31.52 941.668H24.8C23.92 941.668 23.1067 941.454 22.36 941.028C21.64 940.601 21.0667 940.014 20.64 939.268C20.2133 938.548 20 937.748 20 936.868V912.868ZM23.24 917.668V936.868C23.24 937.294 23.3867 937.654 23.68 937.948C24 938.268 24.3733 938.428 24.8 938.428H31.52C31.9467 938.428 32.3067 938.268 32.6 937.948C32.92 937.654 33.08 937.294 33.08 936.868L33.08 917.668C33.08 917.241 32.92 916.868 32.6 916.548C32.3067 916.254 31.9467 916.108 31.52 916.108H24.8C24.3733 916.108 24 916.254 23.68 916.548C23.3867 916.868 23.24 917.241 23.24 917.668ZM36.32 917.668L36.32 935.628C36.32 936.054 36.4667 936.414 36.76 936.708C37.08 937.001 37.4533 937.148 37.88 937.148H44C44.4267 937.148 44.7867 937.001 45.08 936.708C45.4 936.414 45.56 936.054 45.56 935.628V917.668C45.56 917.241 45.4 916.868 45.08 916.548C44.7867 916.254 44.4267 916.108 44 916.108H37.88C37.4533 916.108 37.08 916.254 36.76 916.548C36.4667 916.868 36.32 917.241 36.32 917.668ZM20 950.669C20 949.789 20.2133 948.976 20.64 948.229C21.0933 947.509 21.68 946.922 22.4 946.469C23.1467 946.042 23.96 945.829 24.84 945.829H38.36C39.24 945.829 40.04 946.042 40.76 946.469C41.5067 946.922 42.0933 947.509 42.52 948.229C42.9733 948.976 43.2 949.789 43.2 950.669V964.589C43.2 965.496 42.9733 966.309 42.52 967.029C42.0933 967.776 41.5067 968.362 40.76 968.789C40.04 969.242 39.24 969.469 38.36 969.469H24.84C23.96 969.469 23.1467 969.242 22.4 968.789C21.68 968.362 21.0933 967.776 20.64 967.029C20.2133 966.309 20 965.496 20 964.589V950.669ZM23.28 950.669V964.589C23.28 965.016 23.4267 965.376 23.72 965.669C24.04 965.989 24.4133 966.149 24.84 966.149H38.36C38.7867 966.149 39.1467 965.989 39.44 965.669C39.76 965.376 39.92 965.016 39.92 964.589V950.669C39.92 950.242 39.76 949.869 39.44 949.549C39.1467 949.256 38.7867 949.109 38.36 949.109H24.84C24.4133 949.109 24.04 949.256 23.72 949.549C23.4267 949.869 23.28 950.242 23.28 950.669ZM20 977.507C20 976.6 20.2133 975.774 20.64 975.027C21.0933 974.307 21.68 973.734 22.4 973.307C23.1467 972.88 23.96 972.667 24.84 972.667H50.8V975.947H43.2V985.987H39.92V975.947H24.84C24.4133 975.947 24.04 976.094 23.72 976.387C23.4267 976.707 23.28 977.08 23.28 977.507V985.987H20V977.507Z" fill="white" fill-opacity="0.3"/>
<circle cx="35" cy="1013.5" r="16" transform="rotate(90 35 1013.5)" stroke="white" stroke-opacity="0.3"/>
<circle cx="35" cy="1013.5" r="2.5" transform="rotate(90 35 1013.5)" fill="white" fill-opacity="0.3"/>
<circle cx="35" cy="1013.5" r="2" transform="rotate(90 35 1013.5)" stroke="white" stroke-opacity="0.3"/>
<path d="M20 1053.6H45.56V1040.8H48.8L48.8 1069.6H45.56L45.56 1056.84H20L20 1053.6ZM20 1072.43H38.36C39.24 1072.43 40.04 1072.64 40.76 1073.07C41.5067 1073.52 42.0933 1074.11 42.52 1074.83C42.9733 1075.58 43.2 1076.39 43.2 1077.27V1090.31H39.92V1077.27C39.92 1076.84 39.76 1076.47 39.44 1076.15C39.1467 1075.86 38.7867 1075.71 38.36 1075.71H20V1072.43ZM20 1092.9H43.2V1096.18H20V1092.9ZM47.52 1092.9H50.8V1096.18H47.52V1092.9ZM20 1106.1C20 1105.19 20.2133 1104.37 20.64 1103.62C21.0933 1102.9 21.68 1102.33 22.4 1101.9C23.1467 1101.47 23.96 1101.26 24.84 1101.26H50.8V1104.54H43.2V1114.58H39.92V1104.54H24.84C24.4133 1104.54 24.04 1104.69 23.72 1104.98C23.4267 1105.3 23.28 1105.67 23.28 1106.1L23.28 1114.58H20L20 1106.1ZM20 1122.43C20 1121.55 20.2133 1120.73 20.64 1119.99C21.0933 1119.27 21.68 1118.68 22.4 1118.23C23.1467 1117.8 23.96 1117.59 24.84 1117.59H38.36C39.24 1117.59 40.04 1117.8 40.76 1118.23C41.5067 1118.68 42.0933 1119.27 42.52 1119.99C42.9733 1120.73 43.2 1121.55 43.2 1122.43L43.2 1136.35C43.2 1137.25 42.9733 1138.07 42.52 1138.79C42.0933 1139.53 41.5067 1140.12 40.76 1140.55C40.04 1141 39.24 1141.23 38.36 1141.23H24.84C23.96 1141.23 23.1467 1141 22.4 1140.55C21.68 1140.12 21.0933 1139.53 20.64 1138.79C20.2133 1138.07 20 1137.25 20 1136.35V1122.43ZM23.28 1122.43V1136.35C23.28 1136.77 23.4267 1137.13 23.72 1137.43C24.04 1137.75 24.4133 1137.91 24.84 1137.91H38.36C38.7867 1137.91 39.1467 1137.75 39.44 1137.43C39.76 1137.13 39.92 1136.77 39.92 1136.35L39.92 1122.43C39.92 1122 39.76 1121.63 39.44 1121.31C39.1467 1121.01 38.7867 1120.87 38.36 1120.87H24.84C24.4133 1120.87 24.04 1121.01 23.72 1121.31C23.4267 1121.63 23.28 1122 23.28 1122.43ZM20 1144.82H43.2V1163.62C43.2 1164.5 42.9733 1165.3 42.52 1166.02C42.0933 1166.76 41.5067 1167.35 40.76 1167.78C40.04 1168.23 39.24 1168.46 38.36 1168.46H20V1165.18H38.36C38.7867 1165.18 39.1467 1165.02 39.44 1164.7C39.76 1164.4 39.92 1164.04 39.92 1163.62V1149.7C39.92 1149.27 39.76 1148.9 39.44 1148.58C39.1467 1148.26 38.7867 1148.1 38.36 1148.1H20V1144.82ZM20 1172.87H48.8L48.8 1195.63C48.8 1196.51 48.5867 1197.31 48.16 1198.03C47.7333 1198.77 47.1467 1199.36 46.4 1199.79C45.68 1200.21 44.88 1200.43 44 1200.43H37.88C37.5067 1200.43 37.1333 1200.37 36.76 1200.27C36.4133 1200.19 36.08 1200.07 35.76 1199.91C34.88 1200.49 34.12 1200.93 33.48 1201.23C32.84 1201.52 32.1867 1201.67 31.52 1201.67H24.8C23.92 1201.67 23.1067 1201.45 22.36 1201.03C21.64 1200.6 21.0667 1200.01 20.64 1199.27C20.2133 1198.55 20 1197.75 20 1196.87V1172.87ZM23.24 1177.67V1196.87C23.24 1197.29 23.3867 1197.65 23.68 1197.95C24 1198.27 24.3733 1198.43 24.8 1198.43H31.52C31.9467 1198.43 32.3067 1198.27 32.6 1197.95C32.92 1197.65 33.08 1197.29 33.08 1196.87L33.08 1177.67C33.08 1177.24 32.92 1176.87 32.6 1176.55C32.3067 1176.25 31.9467 1176.11 31.52 1176.11H24.8C24.3733 1176.11 24 1176.25 23.68 1176.55C23.3867 1176.87 23.24 1177.24 23.24 1177.67ZM36.32 1177.67L36.32 1195.63C36.32 1196.05 36.4667 1196.41 36.76 1196.71C37.08 1197 37.4533 1197.15 37.88 1197.15H44C44.4267 1197.15 44.7867 1197 45.08 1196.71C45.4 1196.41 45.56 1196.05 45.56 1195.63V1177.67C45.56 1177.24 45.4 1176.87 45.08 1176.55C44.7867 1176.25 44.4267 1176.11 44 1176.11H37.88C37.4533 1176.11 37.08 1176.25 36.76 1176.55C36.4667 1176.87 36.32 1177.24 36.32 1177.67ZM20 1210.67C20 1209.79 20.2133 1208.98 20.64 1208.23C21.0933 1207.51 21.68 1206.92 22.4 1206.47C23.1467 1206.04 23.96 1205.83 24.84 1205.83H38.36C39.24 1205.83 40.04 1206.04 40.76 1206.47C41.5067 1206.92 42.0933 1207.51 42.52 1208.23C42.9733 1208.98 43.2 1209.79 43.2 1210.67V1224.59C43.2 1225.5 42.9733 1226.31 42.52 1227.03C42.0933 1227.78 41.5067 1228.36 40.76 1228.79C40.04 1229.24 39.24 1229.47 38.36 1229.47H24.84C23.96 1229.47 23.1467 1229.24 22.4 1228.79C21.68 1228.36 21.0933 1227.78 20.64 1227.03C20.2133 1226.31 20 1225.5 20 1224.59V1210.67ZM23.28 1210.67V1224.59C23.28 1225.02 23.4267 1225.38 23.72 1225.67C24.04 1225.99 24.4133 1226.15 24.84 1226.15H38.36C38.7867 1226.15 39.1467 1225.99 39.44 1225.67C39.76 1225.38 39.92 1225.02 39.92 1224.59V1210.67C39.92 1210.24 39.76 1209.87 39.44 1209.55C39.1467 1209.26 38.7867 1209.11 38.36 1209.11H24.84C24.4133 1209.11 24.04 1209.26 23.72 1209.55C23.4267 1209.87 23.28 1210.24 23.28 1210.67ZM20 1237.51C20 1236.6 20.2133 1235.77 20.64 1235.03C21.0933 1234.31 21.68 1233.73 22.4 1233.31C23.1467 1232.88 23.96 1232.67 24.84 1232.67H50.8V1235.95H43.2V1245.99H39.92V1235.95H24.84C24.4133 1235.95 24.04 1236.09 23.72 1236.39C23.4267 1236.71 23.28 1237.08 23.28 1237.51V1245.99H20V1237.51Z" fill="white" fill-opacity="0.3"/>
<circle cx="35" cy="1273.5" r="16" transform="rotate(90 35 1273.5)" stroke="white" stroke-opacity="0.3"/>
<circle cx="35" cy="1273.5" r="2.5" transform="rotate(90 35 1273.5)" fill="white" fill-opacity="0.3"/>
<circle cx="35" cy="1273.5" r="2" transform="rotate(90 35 1273.5)" stroke="white" stroke-opacity="0.3"/>
<path d="M20 1313.6H45.56V1300.8H48.8L48.8 1329.6H45.56L45.56 1316.84H20L20 1313.6ZM20 1332.43H38.36C39.24 1332.43 40.04 1332.64 40.76 1333.07C41.5067 1333.52 42.0933 1334.11 42.52 1334.83C42.9733 1335.58 43.2 1336.39 43.2 1337.27V1350.31H39.92V1337.27C39.92 1336.84 39.76 1336.47 39.44 1336.15C39.1467 1335.86 38.7867 1335.71 38.36 1335.71H20V1332.43ZM20 1352.9H43.2V1356.18H20V1352.9ZM47.52 1352.9H50.8V1356.18H47.52V1352.9ZM20 1366.1C20 1365.19 20.2133 1364.37 20.64 1363.62C21.0933 1362.9 21.68 1362.33 22.4 1361.9C23.1467 1361.47 23.96 1361.26 24.84 1361.26H50.8V1364.54H43.2V1374.58H39.92V1364.54H24.84C24.4133 1364.54 24.04 1364.69 23.72 1364.98C23.4267 1365.3 23.28 1365.67 23.28 1366.1L23.28 1374.58H20L20 1366.1ZM20 1382.43C20 1381.55 20.2133 1380.73 20.64 1379.99C21.0933 1379.27 21.68 1378.68 22.4 1378.23C23.1467 1377.8 23.96 1377.59 24.84 1377.59H38.36C39.24 1377.59 40.04 1377.8 40.76 1378.23C41.5067 1378.68 42.0933 1379.27 42.52 1379.99C42.9733 1380.73 43.2 1381.55 43.2 1382.43L43.2 1396.35C43.2 1397.25 42.9733 1398.07 42.52 1398.79C42.0933 1399.53 41.5067 1400.12 40.76 1400.55C40.04 1401 39.24 1401.23 38.36 1401.23H24.84C23.96 1401.23 23.1467 1401 22.4 1400.55C21.68 1400.12 21.0933 1399.53 20.64 1398.79C20.2133 1398.07 20 1397.25 20 1396.35V1382.43ZM23.28 1382.43V1396.35C23.28 1396.77 23.4267 1397.13 23.72 1397.43C24.04 1397.75 24.4133 1397.91 24.84 1397.91H38.36C38.7867 1397.91 39.1467 1397.75 39.44 1397.43C39.76 1397.13 39.92 1396.77 39.92 1396.35L39.92 1382.43C39.92 1382 39.76 1381.63 39.44 1381.31C39.1467 1381.01 38.7867 1380.87 38.36 1380.87H24.84C24.4133 1380.87 24.04 1381.01 23.72 1381.31C23.4267 1381.63 23.28 1382 23.28 1382.43ZM20 1404.82H43.2V1423.62C43.2 1424.5 42.9733 1425.3 42.52 1426.02C42.0933 1426.76 41.5067 1427.35 40.76 1427.78C40.04 1428.23 39.24 1428.46 38.36 1428.46H20V1425.18H38.36C38.7867 1425.18 39.1467 1425.02 39.44 1424.7C39.76 1424.4 39.92 1424.04 39.92 1423.62V1409.7C39.92 1409.27 39.76 1408.9 39.44 1408.58C39.1467 1408.26 38.7867 1408.1 38.36 1408.1H20V1404.82ZM20 1432.87H48.8L48.8 1455.63C48.8 1456.51 48.5867 1457.31 48.16 1458.03C47.7333 1458.77 47.1467 1459.36 46.4 1459.79C45.68 1460.21 44.88 1460.43 44 1460.43H37.88C37.5067 1460.43 37.1333 1460.37 36.76 1460.27C36.4133 1460.19 36.08 1460.07 35.76 1459.91C34.88 1460.49 34.12 1460.93 33.48 1461.23C32.84 1461.52 32.1867 1461.67 31.52 1461.67H24.8C23.92 1461.67 23.1067 1461.45 22.36 1461.03C21.64 1460.6 21.0667 1460.01 20.64 1459.27C20.2133 1458.55 20 1457.75 20 1456.87V1432.87ZM23.24 1437.67V1456.87C23.24 1457.29 23.3867 1457.65 23.68 1457.95C24 1458.27 24.3733 1458.43 24.8 1458.43H31.52C31.9467 1458.43 32.3067 1458.27 32.6 1457.95C32.92 1457.65 33.08 1457.29 33.08 1456.87L33.08 1437.67C33.08 1437.24 32.92 1436.87 32.6 1436.55C32.3067 1436.25 31.9467 1436.11 31.52 1436.11H24.8C24.3733 1436.11 24 1436.25 23.68 1436.55C23.3867 1436.87 23.24 1437.24 23.24 1437.67ZM36.32 1437.67L36.32 1455.63C36.32 1456.05 36.4667 1456.41 36.76 1456.71C37.08 1457 37.4533 1457.15 37.88 1457.15H44C44.4267 1457.15 44.7867 1457 45.08 1456.71C45.4 1456.41 45.56 1456.05 45.56 1455.63V1437.67C45.56 1437.24 45.4 1436.87 45.08 1436.55C44.7867 1436.25 44.4267 1436.11 44 1436.11H37.88C37.4533 1436.11 37.08 1436.25 36.76 1436.55C36.4667 1436.87 36.32 1437.24 36.32 1437.67ZM20 1470.67C20 1469.79 20.2133 1468.98 20.64 1468.23C21.0933 1467.51 21.68 1466.92 22.4 1466.47C23.1467 1466.04 23.96 1465.83 24.84 1465.83H38.36C39.24 1465.83 40.04 1466.04 40.76 1466.47C41.5067 1466.92 42.0933 1467.51 42.52 1468.23C42.9733 1468.98 43.2 1469.79 43.2 1470.67V1484.59C43.2 1485.5 42.9733 1486.31 42.52 1487.03C42.0933 1487.78 41.5067 1488.36 40.76 1488.79C40.04 1489.24 39.24 1489.47 38.36 1489.47H24.84C23.96 1489.47 23.1467 1489.24 22.4 1488.79C21.68 1488.36 21.0933 1487.78 20.64 1487.03C20.2133 1486.31 20 1485.5 20 1484.59V1470.67ZM23.28 1470.67V1484.59C23.28 1485.02 23.4267 1485.38 23.72 1485.67C24.04 1485.99 24.4133 1486.15 24.84 1486.15H38.36C38.7867 1486.15 39.1467 1485.99 39.44 1485.67C39.76 1485.38 39.92 1485.02 39.92 1484.59V1470.67C39.92 1470.24 39.76 1469.87 39.44 1469.55C39.1467 1469.26 38.7867 1469.11 38.36 1469.11H24.84C24.4133 1469.11 24.04 1469.26 23.72 1469.55C23.4267 1469.87 23.28 1470.24 23.28 1470.67ZM20 1497.51C20 1496.6 20.2133 1495.77 20.64 1495.03C21.0933 1494.31 21.68 1493.73 22.4 1493.31C23.1467 1492.88 23.96 1492.67 24.84 1492.67H50.8V1495.95H43.2V1505.99H39.92V1495.95H24.84C24.4133 1495.95 24.04 1496.09 23.72 1496.39C23.4267 1496.71 23.28 1497.08 23.28 1497.51V1505.99H20V1497.51Z" fill="white" fill-opacity="0.3"/>
<circle cx="35" cy="1533.5" r="16" transform="rotate(90 35 1533.5)" stroke="white" stroke-opacity="0.3"/>
<circle cx="35" cy="1533.5" r="2.5" transform="rotate(90 35 1533.5)" fill="white" fill-opacity="0.3"/>
<circle cx="35" cy="1533.5" r="2" transform="rotate(90 35 1533.5)" stroke="white" stroke-opacity="0.3"/>
<path d="M20 1573.6H45.56V1560.8H48.8L48.8 1589.6H45.56L45.56 1576.84H20L20 1573.6ZM20 1592.43H38.36C39.24 1592.43 40.04 1592.64 40.76 1593.07C41.5067 1593.52 42.0933 1594.11 42.52 1594.83C42.9733 1595.58 43.2 1596.39 43.2 1597.27V1610.31H39.92V1597.27C39.92 1596.84 39.76 1596.47 39.44 1596.15C39.1467 1595.86 38.7867 1595.71 38.36 1595.71H20V1592.43ZM20 1612.9H43.2V1616.18H20V1612.9ZM47.52 1612.9H50.8V1616.18H47.52V1612.9ZM20 1626.1C20 1625.19 20.2133 1624.37 20.64 1623.62C21.0933 1622.9 21.68 1622.33 22.4 1621.9C23.1467 1621.47 23.96 1621.26 24.84 1621.26H50.8V1624.54H43.2V1634.58H39.92V1624.54H24.84C24.4133 1624.54 24.04 1624.69 23.72 1624.98C23.4267 1625.3 23.28 1625.67 23.28 1626.1L23.28 1634.58H20L20 1626.1ZM20 1642.43C20 1641.55 20.2133 1640.73 20.64 1639.99C21.0933 1639.27 21.68 1638.68 22.4 1638.23C23.1467 1637.8 23.96 1637.59 24.84 1637.59H38.36C39.24 1637.59 40.04 1637.8 40.76 1638.23C41.5067 1638.68 42.0933 1639.27 42.52 1639.99C42.9733 1640.73 43.2 1641.55 43.2 1642.43L43.2 1656.35C43.2 1657.25 42.9733 1658.07 42.52 1658.79C42.0933 1659.53 41.5067 1660.12 40.76 1660.55C40.04 1661 39.24 1661.23 38.36 1661.23H24.84C23.96 1661.23 23.1467 1661 22.4 1660.55C21.68 1660.12 21.0933 1659.53 20.64 1658.79C20.2133 1658.07 20 1657.25 20 1656.35V1642.43ZM23.28 1642.43V1656.35C23.28 1656.77 23.4267 1657.13 23.72 1657.43C24.04 1657.75 24.4133 1657.91 24.84 1657.91H38.36C38.7867 1657.91 39.1467 1657.75 39.44 1657.43C39.76 1657.13 39.92 1656.77 39.92 1656.35L39.92 1642.43C39.92 1642 39.76 1641.63 39.44 1641.31C39.1467 1641.01 38.7867 1640.87 38.36 1640.87H24.84C24.4133 1640.87 24.04 1641.01 23.72 1641.31C23.4267 1641.63 23.28 1642 23.28 1642.43ZM20 1664.82H43.2V1683.62C43.2 1684.5 42.9733 1685.3 42.52 1686.02C42.0933 1686.76 41.5067 1687.35 40.76 1687.78C40.04 1688.23 39.24 1688.46 38.36 1688.46H20V1685.18H38.36C38.7867 1685.18 39.1467 1685.02 39.44 1684.7C39.76 1684.4 39.92 1684.04 39.92 1683.62V1669.7C39.92 1669.27 39.76 1668.9 39.44 1668.58C39.1467 1668.26 38.7867 1668.1 38.36 1668.1H20V1664.82ZM20 1692.87H48.8L48.8 1715.63C48.8 1716.51 48.5867 1717.31 48.16 1718.03C47.7333 1718.77 47.1467 1719.36 46.4 1719.79C45.68 1720.21 44.88 1720.43 44 1720.43H37.88C37.5067 1720.43 37.1333 1720.37 36.76 1720.27C36.4133 1720.19 36.08 1720.07 35.76 1719.91C34.88 1720.49 34.12 1720.93 33.48 1721.23C32.84 1721.52 32.1867 1721.67 31.52 1721.67H24.8C23.92 1721.67 23.1067 1721.45 22.36 1721.03C21.64 1720.6 21.0667 1720.01 20.64 1719.27C20.2133 1718.55 20 1717.75 20 1716.87V1692.87ZM23.24 1697.67V1716.87C23.24 1717.29 23.3867 1717.65 23.68 1717.95C24 1718.27 24.3733 1718.43 24.8 1718.43H31.52C31.9467 1718.43 32.3067 1718.27 32.6 1717.95C32.92 1717.65 33.08 1717.29 33.08 1716.87L33.08 1697.67C33.08 1697.24 32.92 1696.87 32.6 1696.55C32.3067 1696.25 31.9467 1696.11 31.52 1696.11H24.8C24.3733 1696.11 24 1696.25 23.68 1696.55C23.3867 1696.87 23.24 1697.24 23.24 1697.67ZM36.32 1697.67L36.32 1715.63C36.32 1716.05 36.4667 1716.41 36.76 1716.71C37.08 1717 37.4533 1717.15 37.88 1717.15H44C44.4267 1717.15 44.7867 1717 45.08 1716.71C45.4 1716.41 45.56 1716.05 45.56 1715.63V1697.67C45.56 1697.24 45.4 1696.87 45.08 1696.55C44.7867 1696.25 44.4267 1696.11 44 1696.11H37.88C37.4533 1696.11 37.08 1696.25 36.76 1696.55C36.4667 1696.87 36.32 1697.24 36.32 1697.67ZM20 1730.67C20 1729.79 20.2133 1728.98 20.64 1728.23C21.0933 1727.51 21.68 1726.92 22.4 1726.47C23.1467 1726.04 23.96 1725.83 24.84 1725.83H38.36C39.24 1725.83 40.04 1726.04 40.76 1726.47C41.5067 1726.92 42.0933 1727.51 42.52 1728.23C42.9733 1728.98 43.2 1729.79 43.2 1730.67V1744.59C43.2 1745.5 42.9733 1746.31 42.52 1747.03C42.0933 1747.78 41.5067 1748.36 40.76 1748.79C40.04 1749.24 39.24 1749.47 38.36 1749.47H24.84C23.96 1749.47 23.1467 1749.24 22.4 1748.79C21.68 1748.36 21.0933 1747.78 20.64 1747.03C20.2133 1746.31 20 1745.5 20 1744.59V1730.67ZM23.28 1730.67V1744.59C23.28 1745.02 23.4267 1745.38 23.72 1745.67C24.04 1745.99 24.4133 1746.15 24.84 1746.15H38.36C38.7867 1746.15 39.1467 1745.99 39.44 1745.67C39.76 1745.38 39.92 1745.02 39.92 1744.59V1730.67C39.92 1730.24 39.76 1729.87 39.44 1729.55C39.1467 1729.26 38.7867 1729.11 38.36 1729.11H24.84C24.4133 1729.11 24.04 1729.26 23.72 1729.55C23.4267 1729.87 23.28 1730.24 23.28 1730.67ZM20 1757.51C20 1756.6 20.2133 1755.77 20.64 1755.03C21.0933 1754.31 21.68 1753.73 22.4 1753.31C23.1467 1752.88 23.96 1752.67 24.84 1752.67H50.8V1755.95H43.2V1765.99H39.92V1755.95H24.84C24.4133 1755.95 24.04 1756.09 23.72 1756.39C23.4267 1756.71 23.28 1757.08 23.28 1757.51V1765.99H20V1757.51Z" fill="white" fill-opacity="0.3"/>
<circle cx="35" cy="1793.5" r="16" transform="rotate(90 35 1793.5)" stroke="white" stroke-opacity="0.3"/>
<circle cx="35" cy="1793.5" r="2.5" transform="rotate(90 35 1793.5)" fill="white" fill-opacity="0.3"/>
<circle cx="35" cy="1793.5" r="2" transform="rotate(90 35 1793.5)" stroke="white" stroke-opacity="0.3"/>
<path d="M20 1833.6H45.56V1820.8H48.8L48.8 1849.6H45.56L45.56 1836.84H20L20 1833.6ZM20 1852.43H38.36C39.24 1852.43 40.04 1852.64 40.76 1853.07C41.5067 1853.52 42.0933 1854.11 42.52 1854.83C42.9733 1855.58 43.2 1856.39 43.2 1857.27V1870.31H39.92V1857.27C39.92 1856.84 39.76 1856.47 39.44 1856.15C39.1467 1855.86 38.7867 1855.71 38.36 1855.71H20V1852.43ZM20 1872.9H43.2V1876.18H20V1872.9ZM47.52 1872.9H50.8V1876.18H47.52V1872.9ZM20 1886.1C20 1885.19 20.2133 1884.37 20.64 1883.62C21.0933 1882.9 21.68 1882.33 22.4 1881.9C23.1467 1881.47 23.96 1881.26 24.84 1881.26H50.8V1884.54H43.2V1894.58H39.92V1884.54H24.84C24.4133 1884.54 24.04 1884.69 23.72 1884.98C23.4267 1885.3 23.28 1885.67 23.28 1886.1L23.28 1894.58H20L20 1886.1ZM20 1902.43C20 1901.55 20.2133 1900.73 20.64 1899.99C21.0933 1899.27 21.68 1898.68 22.4 1898.23C23.1467 1897.8 23.96 1897.59 24.84 1897.59H38.36C39.24 1897.59 40.04 1897.8 40.76 1898.23C41.5067 1898.68 42.0933 1899.27 42.52 1899.99C42.9733 1900.73 43.2 1901.55 43.2 1902.43L43.2 1916.35C43.2 1917.25 42.9733 1918.07 42.52 1918.79C42.0933 1919.53 41.5067 1920.12 40.76 1920.55C40.04 1921 39.24 1921.23 38.36 1921.23H24.84C23.96 1921.23 23.1467 1921 22.4 1920.55C21.68 1920.12 21.0933 1919.53 20.64 1918.79C20.2133 1918.07 20 1917.25 20 1916.35V1902.43ZM23.28 1902.43V1916.35C23.28 1916.77 23.4267 1917.13 23.72 1917.43C24.04 1917.75 24.4133 1917.91 24.84 1917.91H38.36C38.7867 1917.91 39.1467 1917.75 39.44 1917.43C39.76 1917.13 39.92 1916.77 39.92 1916.35L39.92 1902.43C39.92 1902 39.76 1901.63 39.44 1901.31C39.1467 1901.01 38.7867 1900.87 38.36 1900.87H24.84C24.4133 1900.87 24.04 1901.01 23.72 1901.31C23.4267 1901.63 23.28 1902 23.28 1902.43ZM20 1924.82H43.2V1943.62C43.2 1944.5 42.9733 1945.3 42.52 1946.02C42.0933 1946.76 41.5067 1947.35 40.76 1947.78C40.04 1948.23 39.24 1948.46 38.36 1948.46H20V1945.18H38.36C38.7867 1945.18 39.1467 1945.02 39.44 1944.7C39.76 1944.4 39.92 1944.04 39.92 1943.62V1929.7C39.92 1929.27 39.76 1928.9 39.44 1928.58C39.1467 1928.26 38.7867 1928.1 38.36 1928.1H20V1924.82ZM20 1952.87H48.8L48.8 1975.63C48.8 1976.51 48.5867 1977.31 48.16 1978.03C47.7333 1978.77 47.1467 1979.36 46.4 1979.79C45.68 1980.21 44.88 1980.43 44 1980.43H37.88C37.5067 1980.43 37.1333 1980.37 36.76 1980.27C36.4133 1980.19 36.08 1980.07 35.76 1979.91C34.88 1980.49 34.12 1980.93 33.48 1981.23C32.84 1981.52 32.1867 1981.67 31.52 1981.67H24.8C23.92 1981.67 23.1067 1981.45 22.36 1981.03C21.64 1980.6 21.0667 1980.01 20.64 1979.27C20.2133 1978.55 20 1977.75 20 1976.87V1952.87ZM23.24 1957.67V1976.87C23.24 1977.29 23.3867 1977.65 23.68 1977.95C24 1978.27 24.3733 1978.43 24.8 1978.43H31.52C31.9467 1978.43 32.3067 1978.27 32.6 1977.95C32.92 1977.65 33.08 1977.29 33.08 1976.87L33.08 1957.67C33.08 1957.24 32.92 1956.87 32.6 1956.55C32.3067 1956.25 31.9467 1956.11 31.52 1956.11H24.8C24.3733 1956.11 24 1956.25 23.68 1956.55C23.3867 1956.87 23.24 1957.24 23.24 1957.67ZM36.32 1957.67L36.32 1975.63C36.32 1976.05 36.4667 1976.41 36.76 1976.71C37.08 1977 37.4533 1977.15 37.88 1977.15H44C44.4267 1977.15 44.7867 1977 45.08 1976.71C45.4 1976.41 45.56 1976.05 45.56 1975.63V1957.67C45.56 1957.24 45.4 1956.87 45.08 1956.55C44.7867 1956.25 44.4267 1956.11 44 1956.11H37.88C37.4533 1956.11 37.08 1956.25 36.76 1956.55C36.4667 1956.87 36.32 1957.24 36.32 1957.67ZM20 1990.67C20 1989.79 20.2133 1988.98 20.64 1988.23C21.0933 1987.51 21.68 1986.92 22.4 1986.47C23.1467 1986.04 23.96 1985.83 24.84 1985.83H38.36C39.24 1985.83 40.04 1986.04 40.76 1986.47C41.5067 1986.92 42.0933 1987.51 42.52 1988.23C42.9733 1988.98 43.2 1989.79 43.2 1990.67V2004.59C43.2 2005.5 42.9733 2006.31 42.52 2007.03C42.0933 2007.78 41.5067 2008.36 40.76 2008.79C40.04 2009.24 39.24 2009.47 38.36 2009.47H24.84C23.96 2009.47 23.1467 2009.24 22.4 2008.79C21.68 2008.36 21.0933 2007.78 20.64 2007.03C20.2133 2006.31 20 2005.5 20 2004.59V1990.67ZM23.28 1990.67V2004.59C23.28 2005.02 23.4267 2005.38 23.72 2005.67C24.04 2005.99 24.4133 2006.15 24.84 2006.15H38.36C38.7867 2006.15 39.1467 2005.99 39.44 2005.67C39.76 2005.38 39.92 2005.02 39.92 2004.59V1990.67C39.92 1990.24 39.76 1989.87 39.44 1989.55C39.1467 1989.26 38.7867 1989.11 38.36 1989.11H24.84C24.4133 1989.11 24.04 1989.26 23.72 1989.55C23.4267 1989.87 23.28 1990.24 23.28 1990.67ZM20 2017.51C20 2016.6 20.2133 2015.77 20.64 2015.03C21.0933 2014.31 21.68 2013.73 22.4 2013.31C23.1467 2012.88 23.96 2012.67 24.84 2012.67H50.8V2015.95H43.2V2025.99H39.92V2015.95H24.84C24.4133 2015.95 24.04 2016.09 23.72 2016.39C23.4267 2016.71 23.28 2017.08 23.28 2017.51V2025.99H20V2017.51Z" fill="white" fill-opacity="0.3"/>
<circle cx="35" cy="2053.5" r="16" transform="rotate(90 35 2053.5)" stroke="white" stroke-opacity="0.3"/>
<circle cx="35" cy="2053.5" r="2.5" transform="rotate(90 35 2053.5)" fill="white" fill-opacity="0.3"/>
<circle cx="35" cy="2053.5" r="2" transform="rotate(90 35 2053.5)" stroke="white" stroke-opacity="0.3"/>
<path d="M20 2093.6H45.56V2080.8H48.8L48.8 2109.6H45.56L45.56 2096.84H20L20 2093.6ZM20 2112.43H38.36C39.24 2112.43 40.04 2112.64 40.76 2113.07C41.5067 2113.52 42.0933 2114.11 42.52 2114.83C42.9733 2115.58 43.2 2116.39 43.2 2117.27V2130.31H39.92V2117.27C39.92 2116.84 39.76 2116.47 39.44 2116.15C39.1467 2115.86 38.7867 2115.71 38.36 2115.71H20V2112.43ZM20 2132.9H43.2V2136.18H20V2132.9ZM47.52 2132.9H50.8V2136.18H47.52V2132.9ZM20 2146.1C20 2145.19 20.2133 2144.37 20.64 2143.62C21.0933 2142.9 21.68 2142.33 22.4 2141.9C23.1467 2141.47 23.96 2141.26 24.84 2141.26H50.8V2144.54H43.2V2154.58H39.92V2144.54H24.84C24.4133 2144.54 24.04 2144.69 23.72 2144.98C23.4267 2145.3 23.28 2145.67 23.28 2146.1L23.28 2154.58H20L20 2146.1ZM20 2162.43C20 2161.55 20.2133 2160.73 20.64 2159.99C21.0933 2159.27 21.68 2158.68 22.4 2158.23C23.1467 2157.8 23.96 2157.59 24.84 2157.59H38.36C39.24 2157.59 40.04 2157.8 40.76 2158.23C41.5067 2158.68 42.0933 2159.27 42.52 2159.99C42.9733 2160.73 43.2 2161.55 43.2 2162.43L43.2 2176.35C43.2 2177.25 42.9733 2178.07 42.52 2178.79C42.0933 2179.53 41.5067 2180.12 40.76 2180.55C40.04 2181 39.24 2181.23 38.36 2181.23H24.84C23.96 2181.23 23.1467 2181 22.4 2180.55C21.68 2180.12 21.0933 2179.53 20.64 2178.79C20.2133 2178.07 20 2177.25 20 2176.35V2162.43ZM23.28 2162.43V2176.35C23.28 2176.77 23.4267 2177.13 23.72 2177.43C24.04 2177.75 24.4133 2177.91 24.84 2177.91H38.36C38.7867 2177.91 39.1467 2177.75 39.44 2177.43C39.76 2177.13 39.92 2176.77 39.92 2176.35L39.92 2162.43C39.92 2162 39.76 2161.63 39.44 2161.31C39.1467 2161.01 38.7867 2160.87 38.36 2160.87H24.84C24.4133 2160.87 24.04 2161.01 23.72 2161.31C23.4267 2161.63 23.28 2162 23.28 2162.43ZM20 2184.82H43.2V2203.62C43.2 2204.5 42.9733 2205.3 42.52 2206.02C42.0933 2206.76 41.5067 2207.35 40.76 2207.78C40.04 2208.23 39.24 2208.46 38.36 2208.46H20V2205.18H38.36C38.7867 2205.18 39.1467 2205.02 39.44 2204.7C39.76 2204.4 39.92 2204.04 39.92 2203.62V2189.7C39.92 2189.27 39.76 2188.9 39.44 2188.58C39.1467 2188.26 38.7867 2188.1 38.36 2188.1H20V2184.82ZM20 2212.87H48.8L48.8 2235.63C48.8 2236.51 48.5867 2237.31 48.16 2238.03C47.7333 2238.77 47.1467 2239.36 46.4 2239.79C45.68 2240.21 44.88 2240.43 44 2240.43H37.88C37.5067 2240.43 37.1333 2240.37 36.76 2240.27C36.4133 2240.19 36.08 2240.07 35.76 2239.91C34.88 2240.49 34.12 2240.93 33.48 2241.23C32.84 2241.52 32.1867 2241.67 31.52 2241.67H24.8C23.92 2241.67 23.1067 2241.45 22.36 2241.03C21.64 2240.6 21.0667 2240.01 20.64 2239.27C20.2133 2238.55 20 2237.75 20 2236.87V2212.87ZM23.24 2217.67V2236.87C23.24 2237.29 23.3867 2237.65 23.68 2237.95C24 2238.27 24.3733 2238.43 24.8 2238.43H31.52C31.9467 2238.43 32.3067 2238.27 32.6 2237.95C32.92 2237.65 33.08 2237.29 33.08 2236.87L33.08 2217.67C33.08 2217.24 32.92 2216.87 32.6 2216.55C32.3067 2216.25 31.9467 2216.11 31.52 2216.11H24.8C24.3733 2216.11 24 2216.25 23.68 2216.55C23.3867 2216.87 23.24 2217.24 23.24 2217.67ZM36.32 2217.67L36.32 2235.63C36.32 2236.05 36.4667 2236.41 36.76 2236.71C37.08 2237 37.4533 2237.15 37.88 2237.15H44C44.4267 2237.15 44.7867 2237 45.08 2236.71C45.4 2236.41 45.56 2236.05 45.56 2235.63V2217.67C45.56 2217.24 45.4 2216.87 45.08 2216.55C44.7867 2216.25 44.4267 2216.11 44 2216.11H37.88C37.4533 2216.11 37.08 2216.25 36.76 2216.55C36.4667 2216.87 36.32 2217.24 36.32 2217.67ZM20 2250.67C20 2249.79 20.2133 2248.98 20.64 2248.23C21.0933 2247.51 21.68 2246.92 22.4 2246.47C23.1467 2246.04 23.96 2245.83 24.84 2245.83H38.36C39.24 2245.83 40.04 2246.04 40.76 2246.47C41.5067 2246.92 42.0933 2247.51 42.52 2248.23C42.9733 2248.98 43.2 2249.79 43.2 2250.67V2264.59C43.2 2265.5 42.9733 2266.31 42.52 2267.03C42.0933 2267.78 41.5067 2268.36 40.76 2268.79C40.04 2269.24 39.24 2269.47 38.36 2269.47H24.84C23.96 2269.47 23.1467 2269.24 22.4 2268.79C21.68 2268.36 21.0933 2267.78 20.64 2267.03C20.2133 2266.31 20 2265.5 20 2264.59V2250.67ZM23.28 2250.67V2264.59C23.28 2265.02 23.4267 2265.38 23.72 2265.67C24.04 2265.99 24.4133 2266.15 24.84 2266.15H38.36C38.7867 2266.15 39.1467 2265.99 39.44 2265.67C39.76 2265.38 39.92 2265.02 39.92 2264.59V2250.67C39.92 2250.24 39.76 2249.87 39.44 2249.55C39.1467 2249.26 38.7867 2249.11 38.36 2249.11H24.84C24.4133 2249.11 24.04 2249.26 23.72 2249.55C23.4267 2249.87 23.28 2250.24 23.28 2250.67ZM20 2277.51C20 2276.6 20.2133 2275.77 20.64 2275.03C21.0933 2274.31 21.68 2273.73 22.4 2273.31C23.1467 2272.88 23.96 2272.67 24.84 2272.67H50.8V2275.95H43.2V2285.99H39.92V2275.95H24.84C24.4133 2275.95 24.04 2276.09 23.72 2276.39C23.4267 2276.71 23.28 2277.08 23.28 2277.51V2285.99H20V2277.51Z" fill="white" fill-opacity="0.3"/>
</svg>
